<svg xmlns="http://www.w3.org/2000/svg" viewBox="0 0 64 64">
  <circle cx="32" cy="32" r="30" fill="#f7931a"/>
  <path fill="#fff" d="M41.8 28.4c.6-4-2.5-6.1-6.8-7.5l1.4-5.6-3.4-.8-1.3 5.4-2.7-.6 1.4-5.5-3.4-.8-1.4 5.6-5.5-1.4-.9 3.6s2.5.6 2.5.6c1.4.3 1.6 1.2 1.6 1.9l-1.6 6.4c.1 0 .2.1.4.1l-.4-.1-2.2 9c-.2.4-.6 1-1.6.7 0 .1-2.5-.6-2.5-.6l-1.7 3.8 5.2 1.3-1.4 5.7 3.4.8 1.4-5.6 2.7.7-1.4 5.7 3.4.8 1.4-5.7c5.8 1.1 10.2.7 12-4.6 1.5-4.3-.1-6.8-3.2-8.4 2.3-.5 4-2 4.5-5Zm-8 12.1c-1.1 4.3-8.2 2-10.5 1.4l1.9-7.5c2.3.6 9.7 1.7 8.6 6.1Zm1-12.2c-1 3.9-6.9 1.9-8.8 1.4l1.7-6.8c1.9.5 8.1 1.4 7.1 5.4Z"/>
</svg>
